:SAMPLES-PER-SECOND 30
:FULLY-SPECIFIED
:DEGREES
193
root  -23.2521 38.1803 -2.58714 -129.588 84.3087 -122.203
RightUpLeg  -12.6377 -11.0387 7.99103
RightLeg  26.6324 -2.59863 -1.38913
RightFoot  -6.79481 0.214841 -6.56014
RightToes  4.01633e-009 0 -3.6325e-017
Spine  6.93253 -2.41405 16.0583
Spine1  13.6253 -0.0736394 -0.683468
HEad  1.42281 -5.38164 -0.442968
LeftShoulder1  0.19221 2.88606 -24.8537
LeftArm  -8.26726 -0.104295 -39.1187
LeftForeArm  62.6784 -78.9492 -72.2393
LeftHand  0.0250815 1.75057 -1.16119
RightShoulder  -0.0761338 -3.75606 20.948
RightArm  -14.5932 -5.67923 39.6683
RightForeArm  99.3351 76.4041 124.845
RightHand  -0.0998259 -2.34772 -3.4214
LeftUpLeg  -4.90687 -2.09454 7.28337
LeftLeg  65.887 -3.88127 -8.78975
LeftFoot  7.69085 1.48204 -9.14317
LeftToes  -1.95724e-009 9.62483e-011 3.51777e-011
194
root  -21.9038 38.4833 -2.47216 -132.363 85.2668 -124.943
RightUpLeg  -9.41463 -10.1388 6.69071
RightLeg  25.2775 -3.02003 -1.02252
RightFoot  -8.37117 0.106507 -6.27956
RightToes  4.01633e-009 0 -3.6325e-017
Spine  7.08262 -1.86678 15.4388
Spine1  12.9404 0.626017 -1.21319
HEad  2.4657 -5.43808 -0.359024
LeftShoulder1  0.195127 2.87515 -24.7864
LeftArm  -8.0794 -0.0627445 -38.8686
LeftForeArm  62.5837 -78.9479 -72.4926
LeftHand  0.0179802 2.02835 -0.977119
RightShoulder  -0.108578 -3.87214 21.0993
RightArm  -14.5739 -6.03603 40.0016
RightForeArm  99.1458 76.2791 125.394
RightHand  -0.103808 -3.00276 -4.27966
LeftUpLeg  -9.28367 -3.40693 6.31359
LeftLeg  65.863 -3.10896 -6.93746
LeftFoot  6.34922 1.05036 -6.99322
LeftToes  -1.95724e-009 9.62483e-011 3.51777e-011
195
root  -20.5246 38.7532 -2.36587 -127.915 86.4348 -120.623
RightUpLeg  -6.23849 -9.28862 5.64103
RightLeg  23.6352 -2.82691 -0.365479
RightFoot  -9.63983 0.0250686 -6.07774
RightToes  4.01633e-009 0 -3.6325e-017
Spine  6.71871 -1.16806 15.0385
Spine1  12.6475 1.44225 -2.11381
HEad  3.03727 -5.15621 -0.686735
LeftShoulder1  0.19316 2.87575 -24.4932
LeftArm  -8.41408 0.501734 -38.7925
LeftForeArm  63.412 -78.9964 -73.3423
LeftHand  0.0175604 2.11402 -1.05464
RightShoulder  -0.1237 -3.92194 21.4398
RightArm  -14.5753 -6.19971 40.2287
RightForeArm  100.611 76.3051 125.608
RightHand  -0.0699133 -3.32541 -3.03174
LeftUpLeg  -12.8776 -4.14874 5.6126
LeftLeg  63.078 -2.71437 -5.20732
LeftFoot  4.21125 0.664958 -5.03836
LeftToes  -1.95724e-009 9.62483e-011 3.51777e-011
196
root  -19.1364 38.9698 -2.24027 -117.066 87.5279 -109.765
RightUpLeg  -2.85198 -8.73205 4.66898
RightLeg  21.7619 -2.45416 0.185061
RightFoot  -10.9006 -0.0503366 -5.9739
RightToes  4.01633e-009 0 -3.6325e-017
Spine  6.32367 -0.568858 14.3281
Spine1  12.5781 2.0507 -2.87675
HEad  3.17574 -4.9252 -0.733595
LeftShoulder1  0.13546 3.06593 -24.6606
LeftArm  -8.80721 0.867216 -38.1167
LeftForeArm  65.1667 -79.0892 -75.1689
LeftHand  0.0259703 1.96116 -1.28452
RightShoulder  -0.10694 -3.8599 21.5777
RightArm  -14.2412 -6.39267 40.4497
RightForeArm  100.908 76.2429 125.964
RightHand  -0.0978806 -2.84555 -3.86558
LeftUpLeg  -15.4786 -4.71623 5.05923
LeftLeg  57.8445 -2.93599 -4.50861
LeftFoot  1.54663 0.367308 -3.35075
LeftToes  -1.95724e-009 9.62483e-011 3.51777e-011
197
root  -17.7775 39.1034 -2.13744 -97.0942 88.4642 -89.6684
RightUpLeg  0.511418 -8.2944 3.7941
RightLeg  20.0128 -1.99131 0.442747
RightFoot  -12.2113 -0.125539 -5.69372
RightToes  4.01633e-009 0 -3.6325e-017
Spine  6.1127 -0.092404 13.617
Spine1  12.5253 2.53557 -3.65244
HEad  2.75945 -4.27665 -0.951928
LeftShoulder1  0.146673 3.02933 -24.6508
LeftArm  -9.25674 1.5427 -37.5686
LeftForeArm  68.1039 -79.2194 -78.2152
LeftHand  0.0204521 2.64662 -1.52107
RightShoulder  -0.0816404 -3.76971 21.5571
RightArm  -13.7145 -6.35144 41.0512
RightForeArm  100.252 76.3047 125.528
RightHand  -0.104125 -2.90579 -4.27644
LeftUpLeg  -17.0578 -4.84587 4.61947
LeftLeg  50.3875 -3.47645 -4.07741
LeftFoot  -0.60717 0.293953 -3.11182
LeftToes  -1.95724e-009 9.62483e-011 3.51777e-011
198
root  -16.4542 39.1642 -2.08694 -80.6885 88.5597 -73.0189
RightUpLeg  3.98853 -8.31779 3.07418
RightLeg  18.1611 -1.58328 0.737113
RightFoot  -13.4155 -0.191862 -5.56649
RightToes  4.01633e-009 0 -3.6325e-017
Spine  6.44928 -0.0416802 13.2615
Spine1  12.0398 2.60488 -4.44391
HEad  2.56593 -3.44755 -1.27821
LeftShoulder1  0.0788802 3.25008 -24.8078
LeftArm  -9.53402 1.96798 -37.0943
LeftForeArm  69.4695 -79.2673 -79.7358
LeftHand  0.0141173 2.41647 -1.05922
RightShoulder  -0.0595527 -3.69046 21.5476
RightArm  -13.0873 -6.43634 41.4883
RightForeArm  100.327 76.2828 125.645
RightHand  -0.0853727 -3.59077 -4.43857
LeftUpLeg  -17.7788 -4.91139 4.3942
LeftLeg  41.0128 -4.12359 -3.45742
LeftFoot  -1.45777 0.332794 -3.74205
LeftToes  -1.95724e-009 9.62483e-011 3.51777e-011
